<?xml version="1.0" encoding="utf-8"?>
<!-- Generator: Adobe Illustrator 14.0.0, SVG Export Plug-In . SVG Version: 6.00 Build 43363)  -->
<!DOCTYPE svg PUBLIC "-//W3C//DTD SVG 1.0//EN" "http://www.w3.org/TR/2001/REC-SVG-20010904/DTD/svg10.dtd">
<svg version="1.0"
	 id="Layer_1" image-rendering="optimizeQuality" shape-rendering="geometricPrecision" text-rendering="geometricPrecision"
	 xmlns="http://www.w3.org/2000/svg" xmlns:xlink="http://www.w3.org/1999/xlink" x="0px" y="0px" width="1024px" height="1024px"
	 viewBox="0 0 1024 1024" enable-background="new 0 0 1024 1024" xml:space="preserve">
<title>history icon</title>
<desc>history icon from the IconExperience.com O-Collection. Copyright by INCORS GmbH (www.incors.com).</desc>
<path id="curve2" fill="#666666" d="M384,736h-64v-65.6c10.5,1.1,21.2,1.6,32,1.6s21.5-0.5,32-1.6V736L384,736z M670.4,320H864
	c53,0,96,43,96,96s-43,96-96,96v-64c17.7,0,32-14.3,32-32s-14.3-32-32-32s-32,14.3-32,32v32v58.5V864c0,53-43,96-96,96H288
	c-53.7,0-97.1-44.1-96-97.9c1-52.199,43.7-94.1,95.9-94.1H384h320c17.6,0,32,14.4,32,32v8.6c0,11.7-5.8,21.801-16,27.7
	c-9.6,5.5-16,15.9-16,27.7c0,17.7,14.3,32,32,32s32-14.3,32-32v-90.5V416c0-11.2,1.9-22,5.5-32H670.4c1.1-10.5,1.6-21.2,1.6-32
	S671.5,330.5,670.4,320z M384,896h261.5c-3.6-10-5.5-20.8-5.5-32s1.9-22,5.5-32H384h-96c-17.6,0-32,14.4-32,32l0,0
	c0,17.7,14.3,32,32,32H384z"/>
<path id="curve1" fill="#666666" d="M284.9,172.1L352,288c11.6,0,22.6,3.1,32,8.5l87.7-50.7c14.1,16,25.2,34.8,32.1,55.4L416,352
	c0,35.3-28.7,64-64,64s-64-28.7-64-64c0-11.6,3.1-22.6,8.5-32l-67-115.9C245.9,190.5,264.6,179.6,284.9,172.1z"/>
<path id="curve0" fill="#00329B" d="M352,64c159.1,0,288,128.9,288,288c0,159.1-128.9,288-288,288C192.9,640,64,511.1,64,352
	C64,192.9,192.9,64,352,64z M352,128c-123.7,0-224,100.3-224,224s100.3,224,224,224s224-100.3,224-224S475.7,128,352,128z"/>
</svg>
